<mxfile host="Electron" agent="Mozilla/5.0 (Windows NT 10.0; Win64; x64) AppleWebKit/537.36 (KHTML, like Gecko) draw.io/28.0.4 Chrome/138.0.7204.97 Electron/37.2.1 Safari/537.36" scale="1.5" border="0" version="28.0.4">
  <diagram name="Page-1" id="ebQjVzU91OkPXuFwU88t">
    <mxGraphModel dx="1119" dy="635" grid="1" gridSize="10" guides="1" tooltips="1" connect="1" arrows="1" fold="1" page="1" pageScale="1" pageWidth="1100" pageHeight="1700" math="0" shadow="0">
      <root>
        <mxCell id="0" />
        <mxCell id="1" parent="0" />
        <mxCell id="fbcHfSkknigwFqv8QvJB-17" value="&lt;b&gt;&lt;font style=&quot;font-size: 14px;&quot;&gt;External&lt;/font&gt;&lt;/b&gt;" style="text;html=1;align=center;verticalAlign=middle;whiteSpace=wrap;rounded=0;" parent="1" vertex="1">
          <mxGeometry x="410" y="90" width="60" height="30" as="geometry" />
        </mxCell>
        <mxCell id="5Rh6sSmCLg1GtMQXwpnh-5" value="OpenShift cluster" style="swimlane;whiteSpace=wrap;html=1;swimlaneFillColor=default;strokeColor=#C24747;strokeWidth=2;" parent="1" vertex="1">
          <mxGeometry x="480" y="40" width="430" height="340" as="geometry" />
        </mxCell>
        <mxCell id="5Rh6sSmCLg1GtMQXwpnh-7" value="" style="rounded=0;whiteSpace=wrap;html=1;" parent="5Rh6sSmCLg1GtMQXwpnh-5" vertex="1">
          <mxGeometry x="70" y="40" width="350" height="90" as="geometry" />
        </mxCell>
        <mxCell id="5Rh6sSmCLg1GtMQXwpnh-1" value="&lt;font style=&quot;font-size: 14px;&quot;&gt;Event Streams&lt;/font&gt;" style="shape=image;html=1;verticalLabelPosition=bottom;verticalAlign=top;imageAspect=1;aspect=fixed;image=data:image/png,iVBORw0KGgoAAAANSUhEUgAAAGwAAAB4CAYAAAAXIRdAAAAAAXNSR0IArs4c6QAAAARnQU1BAACxjwv8YQUAAAAJcEhZcwAADsMAAA7DAcdvqGQAABOBSURBVHhe7Z17dBvVnce/o5ct+RU7L+dhSQlJIAnhDSFgmbAkaZJTnqcBFrst2f0jNIcN5XTPgTjbJukhDrtdDoV2G+jhbDjFBhoo290FHEqhIXIbHi00L0IaklhjO7GT+C1Ltl6zf9wZaebOaPQayZqz8/GZXOtqRlbuZ373/u5oNMNwHMfBQDeY6AqD4sYQpjMMYTrDEKYzDGE6wxCmMwxhOsMQpjMMYTrDEKYzDGE6wxCmMwxhOsMQpjMMYTrDEKYzGOMDzMwJh6PY09qB9j8cx2nfJVjMZixdVIt7vnE1Gu+9gV5dUwxhGfL2B8eweds+dJ0bpJ8CANxy/Xz88l8fxNJFs+inNMEQlgFvf3AMd258ka6WMad2Cj564zFc5ppGP5UzxhiWJtFoDI/+yxt0tSI9vUN4bPubdLUmGMLSZM8rHfD1DNDVSXnnw+P445/P0NU5YwhLk/c+OkFXpeR3B7+iq3Km6IWxQ1GwQ1G6uuCc9l2iq1Jylu2nq3Jm0pOOtqNjAAB2OAp2OArfUATsUBS+oSgYMOA4gAEDZ5UZrioLAMBZZYZzihnOKjM8bhucU8zUq2rPVWt24+hX5+hqVTbefzP+898b6eqcmBRhbcf88LIT8HZNgB2KABxDnoiXAMCQUvhdeF54txwDBgDHAQ3uEtS7bah3W+GaQmRqzUP/9DJe+++/0NWq/GTbPfjnTXfQ1TlRMGFtx/3wdk2g7ZifVEikECEMx4ADwHAAB4YvST3ZRhAmFUe/nsdtw5Mry+CqNmkmb9/bn+OBzXvpalVOHvghFs2fQVfnRN6FtR4fxe5DQ/ANR0RdnLIwpcaXCqJL6TbiLpTjgIZ5RJxnnpVfOTdW3v8cPvr4a7pakc3f8eA/nrqfrs6ZvAlr+3IULR8Pgh2OpGxouTAh4kiXR4tgFF9P/FhaeuZZsefeipyj7dTZi1jT+HN0dqun96vqL8f7rz5KV2uC5sK83UG0fDIIb1cQwhiTvMGTRRVfpxhllFjRc+K/pyzOhj33lsNZnb04tmcQj+14E7997wj9FADg0Ycb8LMfb6CrNUNTYevf6oG3O5ikcSFrQOl60npPXQlcVVZwHNA1FEHncBQMR7LJZMLidQqvJy633eHAEysd/AbZ8elfffjdwa9whr0Ei8WExQtqceeqK7HAPZ1eVVM0EeYbCeOR3/fB2xNUaEDxY2nJgEHj0nJ45paivq4UDAAnn7qrIaT/Hb4QWg8HwA7FFIUpRbaJAcptDJ64rQz3XVWCOZVFPxWVkLMwb08A637bnbSBSCkV17i0Ap45dnjqSuGsTC0oFV5fCB2+EDo6Q/B2hkilwg5iNjFwWBiU2RjYLSbUu6344SoHaiv0Iy0nYURWF3mg2hWR55uWVGDrzTVwaSApGd7OEHYfHIX3bBjiMY0BUG4zwWFhYLea4LAycFgZuKvNeHp9GWaU60Na1sJa/nwJLZ/1S4QkSzKaFleieXmNJtGULt7OEL73P8NgB2MwMeAFEWEOqwl2K8hjXtwjN9uxwlW495ctWe1WRNZFPpwSC0eV9XNK0X7fHLywekZBZQFk8nxsy3TsubsSi6aZYbcCditQypd2K0MeW8jyxuFxDAaz2nczgh3gULUlAHYgu7+VcYR5z41h3f+yKl0fedx841Q03zRVvOmk8g+/GcLxvijsfETZLQzKrKbEY77ccqsdlaXCtEJb2AEOy3YGAQDOahPe2VICZ01mfysjYb7RMJa8dgqMqBuUlRzQfk8dPHNyS5vzwcufB/DrI+N81wjJWEakmTCznME9S0tQXpJZQ6aCHYhh2Y+JLKG9spGWdpfoGw1j/TudYBgSUGAYvpQuxSoLAB6+zoGN1zvgnGKC3cbAYSORZbcyKLUycFiBSAzwDUURDKe9H6eEHYhh2VMBWVt1DXJ49ZPMPjpKO8LWvnMW3nMB8oDfguFEH3+UW9F+twuuCm2O2+WTk5cieO1wEONhIRkRukQh4oAray2YV5P9ERExy54ag68/pnCkh5Rb11nx5Lr02i2tCGv54gI6esdIUMUXEmFCxL34d7N1IQsALp9mgcdti0eYwyZ0i4mE5PxoDAOBtPbllDTeZI23U6KHSiy794fRlmakpRTm84ew64s+kvsxQgZIckGAA8cA7Xc64ZldnN1gMu64rASrFtj4TJF0iXZenJ1PSgaDMURi9JaZ8+QaG55cW8K3F2k3kggIC/B0eyitzDGlsLavB6nIEu8pDLbdMB2e2WX0ZrrgFqcNV8+yxiPMzotz2Ig8qxkIRVI3YjpsXWND/QJzvGeKLyZSskMcOk6l3jtUhZHo6uVnVvKf+lkONF+X34Od+cbjtqHGQeZk8bmaBXz3yDeuRryz2YG6GkY6Z+X4KOM47N6fOspUhe0+3AcwjCSqhMVdYcP+b7rpTYqCzu4BHDh0iq5OisdtQ7XdJBrLGJRa+IizaGgMwAsPlsI51aQ4prGDHF79NEJvIiFplujzh7DkNydEE2L+jfPZzbZrZ6L5Wm0//s6Fzu4BbPxBq0SUe24N3HVTsfeZJrjn1kjWp+kcjCIQ5qh5GQOz6i6dHZtfH0fbZ2GFtiXl0R85ks7Nkr6dlsO9or2ARBlZGLgrbEUla+ez7Zh3y3ZZVAmRdvv9z2Hns+2S52hmV5pQWSKdl+VDFvgkxDnVxEcWNaYxUI0yxbfk84fQero/0c8iJhq5Yth6TfHIuv2B57Hj2Xfpagmd3QPY8ey7qtJsZoZ0i7wwi2LLaIOzxoSHbrDwY1hMMpZx/FiWDMW31XZmgLJO9gKGAVwVJWhaWE1vMinc/sDzsqhSI5W0Mn5elk9ZAo03WuGcmsga6TEtWfKh+NYO9o3yv4nnCiTemoskujKVJZBKWiFkgT+O2HijJT4vI8NXYp726mdhehNASZhvLATvhVFZvyrYb1qgPngXgmxlCaSSVijq55v5iBJn4iTivKeVj3zIhLWe6ZdFlrDU107+BDkdWe65NSmzwmKQVn+ZBXXVTDw7IL0YKb1fR8AOyCfSMmEMlDMXMEBDbTm9ekFJV9bZP+3EH/Y9pgtpDQss8QxcGmnKUSYT9tTRHlFUCZDfm6+qFdUVlkxkCb/rQdrfX29NHKMVHasFoDiOSYT5xibihunFVWETr1pQMpUlrit2aZ7LLHDVJD/yQSOLMLovFcqm+er/6XyRrSwBPUhzCuMYJ4xm5IcdSNElsmMhmWmhbwUjXrMw7Hy2PSdZAsUuTYgwegHDyBIPWZdIglAeYc6ywnaJBw6dSnkEIx1ZAulKe/mNj1PuJFoTb2V+DBN+EifPJJBGWCBZhAGuAgvb+INWukpCJrIE0pHW2T2AnT8tbJS5ash8LL6YEu3ODqpEmNQvPZYVFrWv9GQjSyAtaV3afzdZjbopibkYB9FYxnHwqQljAyRLJAsZtwTTDTMrxKvmlZff+ISuipOLLIFU0jL9PC1XXNVmSb4gGccoFLPEREwJkcXBNzZBr5o3kjWkgFr0ZYLa67jrCncSLN3WZCwjY5pqlwhR/8mYErYLnSGqNVZn9wBuv/851cZORWf3AObdsp2ulpBqp9ESdihG5Q2JKHNWSxVJHjkdNkn/Kf4pdIStXLGQro6Ti7R0ZD28YTldlVfYIf4zsXikJT5/dNaoCHOVlShmiAxD5miFZPv319FVErKRlo4sAPjutworDKDbW5Q/UFARVpI4nhU/riX8W1hWrliIHY+vp6slZCItXVk7Hl+vGt35gFzpR9zeiXb3zJd+60cijOH/EWcpwtJxcUS8akH47oblmkhLV9bDG5Zj++PqkZ0P2KGoJF+QlBTSCCvjz05V+PEFCjeGCbjn1uQsLRNZe59poqsLgvdsSDHC6qrlxqRjmKMErrJSRdPeiyMFTTwEcpGmB1kkuvjujVpcCpenkM3DGqZV8ob5XlQ4vsVwODgJ3SKylKYHWQDQ9sU4/5s4SyARVk+NX1ASVj+9UnaUIz6OXRJOzik8mUrTgywA2H1gTBZZZGHQeG0Jvbpc2LedM+B02BJ9qWhe9krnhUnpFgUykZaKYpDFDkVl45ZQOqtNskkzlIQBgKusNGHaRKIN/BGQyUg+xKQrTY1ikAUAbYfHFfMFMEDjdfLoQjJhjc7ppB9lEO9PyW8cWk7w1+WYRHKRViyy2KEodh8YlUWW0Nb1buUvRyoKa5hWRWxDsJ4Y0w5eGkGr7yK9SV7gAERi4sE4QTbSikUWALQdDsraVujVnNXmpJcMVBTmcpTA5SiR2RfKXV925b1r5AAEIjGMhmOaSNvx+PqikcUORdHyEYku8Y/QxkrJhoCiMAB48dqFiXGMyl7Y4EReo0yQFYzEMBqOYjgkPxlFwD23BtsfX4ezf9qpeEhJ+PxsMo5gJKPtSJDPvKnPvvi519aVyU/YTfr9MADY9MUpvML2Jb6/BP7b7xzgcpRif8NSuBzJ94ZsEMsKRGIYj3KIxDjMryxBqVl4H8kRMsTOrn5FgZMNOxzF0p/1kQfU5QMZAFtvK8fWlclP2E0aYQDQfHkdyRhNdCbDwBecQJvGUSaRFSWyApEYhsNRnA/IT6pUws2fpl2MsgDge2/LvzMuLM5qs6ospBLmcpSiqW4GueIXRN9h4sPsqRMsdmmYNUZiXEIWXwaiJNKODQZxfFA4KqBP1rddxMHOcdKC1OeNHDg0Xm2nN5GhKgwAmupmSOdl1LLrq268olGkmRggFOMwLhIlCAxGYvjsUgA9Y+lFWrGxu2MEHewE1VMlSle1GVtvU48upCPM5ShFk3MG6bAk15ZIzNM2/eWUJlmjmWFQYmYQ4McvsSxB4OtnBlWTkGLEy06gpWNYNFyRthNnhnvuqqI3UySlMADYtsgJV5ldFl0MEmPaWu9xerOsmFpiQYwDglFOJivIR94vT/ZjYEIf0rzsONa/dkEWUfHSBDRd7YDHlV7ylpYwANi/4krJ3Ew8lnHg8OL1l9GbZM3iKaUAOASjUQSi0YQsPvJ6xkL4yZE+XBpP/uXtYsDbNY71r/cptpdQepw27LlzCr1pUlTTehpfYBxrDx1NHADm0/39t15Jjo5oyFgkhvaeYVwIhkm0RWIIRPikhC/HIxw2XTEVq+YU7pzJdHlkfz+5CwaXaCe6dFVacGxzZl/hSjvCEM8aZ5KTdQCA4fIiCwDKLCa4ymywmsRjWhSBSBRBfhmLRrHrr7146WQ/zqWZ9heC9ft60XZslI8s0k5kzE/0Ts4qM/Z8M/Mv92cUYQK7/sZi10kW+29Zhoap2ssSc7BvFO09I/GJdJCfTI+FE2UwwmFZtR1P3zQbdWXKx+AKQdtxP1oODYIdifKu5FdqFcp3H5wBjzO9cUtMVsLAd48uRyldnRf29wzjLd8QgkISIu4awyQR8Yc4+MNR1M8sx4ueOrjKC/flDW93EC2HBuHtHpeIiV8fUbjpD/+4/cGZ8Diza7ushRWat9hBvH9uBD5/CMEIGdOE0h/m4OdTfY6/unfjgmo0XzMzr+LYkQg2vX8BHd30DRbokoxbzioLXlg7FZ667GRBT8IA4OhgEC1HzuOMfwLBsCCLLOR/IW0gAPDUlqNpQTU8s8o0k9d6YgRtJ0ZEESVOKESRJSo9c0vxwtppad35Qg1dCQOA88EwNnacxdcjIfgjMfhDUXB0F5Rk7PDMKoentgye2jI4y21pXUHVNxqGtyeAjp4gvD1B+EbCikKUxMX/bp0d727ILBtMRt6FffDHk3jvoxM4w/bDYjZhycJa3LlqGa69ci69akZ8/9MuvPS3i1Rk0aV8sAcnTa9dFVY4+chzl9vAcUDHuQDAAb7RiKoIeSlfr/nmajSvyDwbTEbehH11ug9bfvQm3vcq32n14Q3LsaflAZSWpN7Lk+HtG8WmQz74/MKl7KQNmIgA6jZVsnmRaFuF10m2AyhFmvD3GhdXoHFJBTxzUx/QzYS8CDtyogerH/o5LvTzt09Mwq03zMeHv94Cm1V+wmQmtJ7uR8uRXvj8IZWGlstJZHHyWzlKtxGVsucg+XueOXY0L6/RXJRAXoStuOcZfPx5J12tyD8+uAIv/dtDdHVWtJ4eQMuR82D9Ydmer9rQMjGi5yT1guhENiq8vrPCihdWzYRnTn5ECWgurO2/PkPTY7+iq1U59vtmLF00i67OmtbTA2g93Q/WH4ZvVLg9lUiGTBBdkkJ8Xf5k4puuqEL9bAeaFlfyT+QXzYU9sHkv9r39OV2tytNP3oUnNq+mqzXB2+vHriN9YEdDYP0hWWQIXSJAC0s+pjVdMQWNiyon5Q4YmgtbtroFx06ep6tVKdTpZ95eP7y95EbfB8/zN/weDQFg+EjkuzyOdHENtWXgIGSSVnhml6U1FcgnmgtbescufHmql65W5dv33Yhf/fQ7dHXB8flDmk2u80VGR+vTYeG8zK9Ymu8bfaZLsctCPoStu30JXZWStSsz3+b/K5oL29R4a0a3c79v3dW46RoXXW2QBM2FAcAvdqV3S/cF7ul4fue36GoDFfIi7I5bL8eHr2/B4gXJD3iu9lyB9199FHNq0z+fwSAPWSLN3n0fY/+BEzjtuwiLxYyli2bh7jXLcNfqZfSqBmmQd2EG2pKXLtEgfxjCdIYhTGcYwnSGIUxnGMJ0hiFMZxjCdIYhTGcYwnSGIUxnGMJ0hiFMZxjCdMb/Aa9T/Vs0a/aMAAAAAElFTkSuQmCC;" parent="5Rh6sSmCLg1GtMQXwpnh-5" vertex="1">
          <mxGeometry x="340" y="45" width="55" height="61" as="geometry" />
        </mxCell>
        <mxCell id="5Rh6sSmCLg1GtMQXwpnh-8" value="External Listener (SCRAM) 9094" style="rounded=1;whiteSpace=wrap;html=1;fillColor=light-dark(#d9eaf2, #173d4d);strokeColor=#10739e;fontSize=14;" parent="5Rh6sSmCLg1GtMQXwpnh-5" vertex="1">
          <mxGeometry x="90" y="60" width="110" height="50" as="geometry" />
        </mxCell>
        <mxCell id="5Rh6sSmCLg1GtMQXwpnh-9" value="Internal Listener (TLS auth) 9093" style="rounded=1;whiteSpace=wrap;html=1;fillColor=light-dark(#e6ebef, #39454e);strokeColor=light-dark(#23445D,#C2E4FF);fontSize=14;" parent="5Rh6sSmCLg1GtMQXwpnh-5" vertex="1">
          <mxGeometry x="210" y="60" width="110" height="50" as="geometry" />
        </mxCell>
        <mxCell id="5Rh6sSmCLg1GtMQXwpnh-11" value="" style="rounded=0;whiteSpace=wrap;html=1;" parent="5Rh6sSmCLg1GtMQXwpnh-5" vertex="1">
          <mxGeometry x="80" y="240" width="340" height="90" as="geometry" />
        </mxCell>
        <mxCell id="kRqdh9ee5JRcNYlr1lat-1" value="&lt;font style=&quot;font-size: 14px;&quot;&gt;App Connect Enterprise&lt;/font&gt;" style="shape=image;html=1;verticalLabelPosition=bottom;verticalAlign=top;imageAspect=1;aspect=fixed;image=data:image/png,iVBORw0KGgoAAAANSUhEUgAAAHgAAABsCAYAAAChI3ZfAAAAAXNSR0IArs4c6QAAAARnQU1BAACxjwv8YQUAAAAJcEhZcwAADsMAAA7DAcdvqGQAABcpSURBVHhe7V17cBvHff6OAN8iRUKU5AcJQC9biSU7sS3LsgBKnsS1JM+4qRvZE5Ee23+0lt3GqZuZTERnIrGNKE87GsWexI/2DzOx6FSWp0mno0eiJlII2pL8rOVnRT0AiLIsSgQpkQBfAK5/7O3d3t7hbvE4kqL1YQ6HW2APuP32+/1++7iFJMuyjKuYtijiE65ieuEqwdMcVwme5rhK8DTHVYKnOa4SPM0hfdWaSdH+NJ8Eb+30refTjuCOD0YQHUgj2p9CtD+FyICMaCwFQALYK5Ulbk+I9tW64K0tgrfWhcB8F3yeoiu6AlzRBIfCY4gOpNAVHkcoPI5oP0skQ6jhWIIEQJYBCRJkAJJM9/Ts+s8HFrix4bZiBBe44PVcOYRfcQR3fDiMUHgMXZExRPpThCAZOsLMCCV7Jd2QpqRn+rx6flIxAvPd8HmK8L3bi+HzSFOa8CuC4FBkFK8dG0YoMqb5UAMxmRSrTzdTLD3Wn8/6PPTY63Gh6XY3NixzT0mipzTBHccS6DiWQCg8al7Q0NSmEsaaXp2iBQhjzqe9Z048e35qQQILXNh0bym8U0jVU5LgjmNxbOsaRGQgJUYYeGKMJtb0M0y67nvYCqOWjt15tPcDC1zYsKwYTXe4lQyThylFcCg6io17YogOJE0LLjOhrIJz9cncZ6w+z52fVzL9fGChC5vuLUFgoYuedMIxJQiOXkpi474YQpFRpeA4RXEFJ0SGScXwznRx+QiisTSjXPK2pmB6Pv57jefPlB5Y6MKL3yOme6Ix6QRv3NuHjo+HzEmyKTh1r6aRvE3fKEfQVwIACPrJ3ltjraJofxqR/hQAoOt0El2nkoj0pxCNKSdWS8n895gpWbUgIL9r05oSbLjDPaFETxrBoTMj2Li/TzHHyFhw9FhfcHqFN91cjoCvFEFfiS2RuSB0KonfvDeGzlNJnInRnrAcKiSAwAI3XtxQMmEkTwrB2w4PoO3NAcjI3QQ23VyBlmC1I4RaIXSKqLvj3TFEY2mmAhornsG1MK9f2FCK4EKX40RPKMHRy0ls/P0FhM6MGms/+zqDYjcsrUTT0goEvaVanklE16kkth0YRTSWRrRfcd4wr5C6dJBrDSx0Oa7mCSM41DOMta+fIwd8TQcNbiTTZknTkhloCVTDO3Pymx1miPanse3AKEInkqQjxs4nK0TLAHy1EvZ8v9wxkieE4FDPMNa9cS5zjdbVbPqehJaVM9G0pHLKEssj2p/GswdGETqRUom2VDJz3R/91BmSHSc41DOMtW98QQ6YC9PVbOibJcGGMmxaORPBhjLubFcGQieTCtFJUyWbuyUJL2woQdPywlZmRwnu+OwyNh64kLnmqt+svX7p3jo0LZlB37ii0fHuOJ79A/HRptfNKJgSvWlNMX68ppieIm84RvDOzy5j44Hz1hemHktobCjD3gevVfNPF0T703jiP4bRdTJlULLqk8EqGdi0tqRgJDtCcOjsMNb9toe7oEwES2i5sxabVtTozjHd8OyBUXS8M046TgwVXDmGRvQL3yuMuS44waGzCaz9bY/5BTB7WoP3rb8Owfpy3TmmK0Ink3hy1wgifUrXqJVPhlSQwKugBEcGx7Hk16chQ2+KWPNDCfZWu7Hvr6+Htzr/WiqCcE8M4TN9CPfEEOmJAQB89R746z3wN8yCv97DZ3EE0f407nsxIaRkr0fCnr8vy4vkghEcGRzHTb8+aTA1+h9NXvuqivHJYz6a1TGEe2L41e6jaN99BGGF1Ezw13vw6Po78cj65Y6THY2lcd9LCYOS9a6sMO3kghG89r/OIHQ2oSUw4T9AOzKAxusrsPeB67XPOQBK7JYde/m3bEGJ3vz0Wv6tgmNp25C1kpV9Pj1eBSG47d2LaHvnovYDdT9W8ynB68qx74F6+iFHcOhwN+5+6Hk+OWtMFNFL24YMSjbzyZvW5BZZ5z2vJDI4jrZ3L5BfJgGQJEAiO3bvqy52nNzWHfsKQi4UK9C++whad+zj3yoo9jxRAd+sIqasSPlRr0Zfb9uvROBZIm+C1/13GDJkALK6h6y8Vva+Kjf2fsdZs9y6Y19OJtkK4Z4YtuzY6yjJ3toi7NlYAa9HMpSjWp7Kdt8vhrMmOS+C2967gMhQEhKnWk3JJP2lb10DX3X25kUUhw53F5xcFo6T7CnCiw+VGZRMyxUgZRrtl/Ha23T8XAw5ExwZHMfW93qZGkahr3Uty+oQvL6Ceb+wCPfECmaWrdC++wgOHe7mkwuGwAI3NtxenEHBUMtz2/6xrFScc5C1dk8YoS/iTEBljAKD11Zg3196dfkKjbsfel644P31HqxesQj++lnw1Xvw5yPdCPfEhPM/un45XtnezCcXFPe9lEDXCetJh4GFLuz5O7GBmJwIDp2LY82e07ofwLfn/FUl+KRpIZ+1oBCNmP31HryyvRmrVyzi3wIAtO8+itYde23bygBwcNdTGc9TCET701j3YhxnYnLmvmsZ+OinlULNppxM9MbOs5AUH0FdLeuDJUlC02Ln+5Z/9cZRPsmAR9cvx+m3Wi1JeXT9chx8/QfY8vQ6/i0DWn/unC+GEnQ1LyvhypPzyRLwxG9G+aymyJrgtg96ER4aVX0E9RSazwAC11Wg5bY6LmfhYWdaqXJF4K/34JH1yy0rAgCEz/TxSQXHj+8phbfWKqoGuk4k0fH2OJ/VgKwJ7uju19UsqmK2xr28+jo+W8HRvvuorUkVJZfCX+/B5n+w7tjIxmfngz1PVMLncZkqmar4tXfsI+qsCI4MjSE8NErqktLGVffKo+W22fBVOdckoqADBpnwqIAazbB6xSLbfH8+coJPKji8tUXYsKxYLVczJYcEVJwVwW3/e16nWv1GfETLrbP5bI4g3GNtKlfdaU2SFVbnkbeQ2HRPKXyeIkM/A+uTX3vXWsXCBEeGxrDzRIypQ/oHIE8YuU5j1Z3W0f+hI86baIoNt5cwyoVByV0nksqUIHMIE9xxsh+gLoBRLD2GBLTcOofP5hjs/G8+Q37+hll8kg75nDtbNN1eDJ+nSFEs31ohhFj5YmGCd57o07Rr4n9bvjlx5MLhQp6IIEoU3toiBBa41HKmD50vPpknwZGhMUTiYya1R6tFTYucb/ey8NdbqyyfQOjPNibY7rsLjabbSxjLSawny0HXyVRGMy1EcMdJzRySWkP35Nk3oxi+GeQuvomCnZ9s332ETxKGnYJ9DloPMwTmu9GgtIu1UtcrOVOwJUTw1mPnGMXqa48kAc2LavksjsPOT4Z7Ynjshzv5ZFs89sOdtv7drhnlBJo5FYPp2ZIkYNsfzHu2bAmODI0Zagu/b/nGXD6b46ADB1Y4dLjbVo0sDh3uRvtu6+7PRydgzpYZVs53K6Vt/gBkUzNtS3DH6T6l2hDF0o0q2F81saaZxSPfXc4n6UBVLDKWKzobJJ/2dT4IznfD63GR4tf5Y82qhk6SG9hZ2BJMQGoI+5oeNS2cePNMIdLrRGdlzLtrM9p3H9UpmkzLOYq7H3peaMIAmadlXamcRNNtJZAlqldWu+S565TRD9sOF1a+9r7CrX5ckg5j7f+LhQheM3n3EokOGbLw13ts/awZnB4qtEPXqSTu+/chvdZUXiQE5ruxZ6N+coWlgiPxUW1+FVNf2NeTSS4UFYsM87HIhVwRa+E0AvPdaKhRommTvojQyXHDYquWBEcztH2pT/ZNov9lITLMlw9Wr1iEg7ue4pMnBRoXhBDeH/OdHpYEd/YOMv6XblBfNy+Y+GjSDP56j23AlQ+cPHe2CMx3EwsqKZaU88k8LAmWwIZs+ihak/PUQKtAkJQrnDx3tgjMdxMFQ1Ey9Cp+87Q+krYkuPP8Za1mcHOdARmBuZV8lklB6459OflVUeTaaeIEvDVFuhhIfTC+mIUlwdTv6u2+dtw4t4rPMeGgzSCnkW2niVPw1ZLV+iTFeOq5kQydHZYEd164zNQW8kpbBsdo7ycDIsqi013ZWR5+5dbRLU+vUzcrhHtijk+4E4G3tghQ/C4khRNoPjkyoDfRlu3gyl3vaAfc3YK+yhJ8ev9S7f0c8cHFYbiLJPQOJzEwmkK5uwgSgBnFRah0F6G21IWqEhcq3BLKXEUoYtx+++6jtgT76z04/VYrn2wANcN2KqUVZTKxZHs/mVYL7a5Ndr3rS9u0kT1LBRvsO2vnM1YLe3SeG0L78Rh+9v55/Gd4AHujl/HZwAgGx1OIj+tNzHhaxmgqjfG0jDRXF0WCH9GJdyIT7iD4nY5DVpTLxUWUIxYZCY7ERw1tLHbLJYD+fc9l/OS9c3j584s43BtHbCzJRIOaz1dh8R0igVW2E+9Wr1hkq86pEHD5ask9TNrG+WQGGQmGLlbTH8mQ4a0U7+Q4mxjHk2+dwb9+dB4fxchN4rwn1/b2pkE0sNps41fNIJJnagRcGjPEJ5PbH/jysyRYr1j9+KOVulg892kv7v19Nz6IJZhoT8uu1jx6zB5kgIiCtjy9LqdhPZHJ8pMdcEUG0noFgylXUQX7Kks1u84/ZBnRuPkAM4v7/3QCOz790qB+qErVH5FX2rMZRNTjr/fkdWe+SL+zyNixc6Dq1TYZbB+FhowEA6R28L6XbIwETRCJj2HNH7tx+MKQ6iN0NY6xAgYl20hYRL12CrTDlA+41DI1litfdJYEm6uY1JdIfIT/uIrHj4QROk/a0AS0plGwitVrWHuWUerS/9p//rl9YCWiPhFM5YCLLKLOKhgmZUxgSTDUimIctYAkkeFEDmv+eByh3kFjrVIlquzUvYSlnnJ8+7oqfHdeDdbPq8HahmoEr52Bm2rLcENNKerK3Pjy3AD+ScDv5ateFlM24OLLlTn2cX/nY0Mwr179g8fWj79AZy/pv+bbaHqNkrR766vxj0vmYF1DNRbXlGFGsfnPKXVJ2PijDj7ZgFwDq0yYigFXdCDFlCerYraMNZiXqILGOdWGyJlVMRtohXoH0fbxWUbhili5vADwtZpy/NtdPtx7fTVqSuyX5BdRSb6BVSaImPyJDLgiAykDJ6yafdwfaVoSDLVO6OsF6RWTEU5oBD/+zmnlS5TPKmSqe+U8W2+9Hj+5JbtVZUX8nJ3SckW2AVe4J6ZuTiA6kOL4oItrkbIPzNPf2WlJcKCumrygDWjaoIYMWQK6LgwCALZ+chbh+AhjNPQmhBqO7csasKQmu4VHRXqsVq1YhJXLF2I8LVtuvPkShWjAJXm/j3l3bVY3eixyDaKIXuJNNHQmmoclwb7KUiYYIk+qiQYQURTc9qlmmjUTre8YeWG5H7fUZrfajmiPVfv2ZqRkIJFMW27DSeO8YVGIBFxmoNdw94PPCU3ftUNXZDyDiSYJAX8WCm6sm6nTpK5TGzI6L1zC4++c0qUZH8CTN87BrZ7syIWgaaaBVZlLwkhSRnw8zW2yug2MppEyVnIhiARcVqBEz7trc15q7gyTG/B1FlLW9sFsTDQUFbOOXK9oIHTxMknXKpFua6gowZM3ZHfnQ1iZr5xtYOUpc2EsLSORZDe9ii+NGieHi0Ik4LJDuCeGux98zvbazBAdSDEW0rgnkwH0sCW4sa5aZ+NlMD4ZMsLxEZKuTM/VdEv2671izRbaaUD9loh6eUUVF0kodxchnkxrG6fo/jwILlQTjF5rLkretGoGAv5ieGtcisdVOIExwAJsBvwB4NVoLx5//wQkYqHJhHeQAWayVz7IDDhTX39jVTneX2M/KSCXdSYzTWUdTcn4pH8EY7wtVg8lfHN2maGXTAS5TLK3QqZrEAX5J/RxdIXHEBlIoemWcmxarZ8nZ0swAFT87k3yQpOvjkj1GAzRMrBlaQN+9DXrFXdyIRcATr/VmlFR718cJkrNcGVfry3DtZXZrzSfzap6onD6bglbEw0TP2y28b5ZkoCVs60n5YlGyTzseqxml7n1ZjqZRjwpq9uXw8Z7eOwgEhOAuetRlDSne8GECG72ssszEP+qbVTMxnbyyjprgkX8rBnsVtgpdUlIjPPNpBTZxlPoH8neD9vd9Q+l4p1+qxUHdz2Fg7uesrQyFE4vrCZEcHDWTE6x3IIgqnK1drK/0v4PJEUUYQa7fHPK3SiSYFTwOFHwxZHsFWz3na9sbzZ0lfrrPTj4+g90aTzCDi+sJkRwY91M+CrI0CFVrqEtBhKF0Ye3wnpKTz59tyJdgYkUH0mnEE+mEFcUnS3svi9TTxc12ZMFIYKhmGmqUt7/mvlin42C7Vaqs4OdaRtJGdvAdPsykZ2C7ci1I9BuYTW78+cDYYKfucELX0Wp3vcCBp8sQyFb9xkj7BZRsYPdGh2JZFpVLGumE8k0BAawsoJdZbOLGZyEMMFQTDWvWFOfLAGR4TE+uw52BNnBLng5mxjTVJtKI6EoOp5MYzhpXfl42H2XnR+1c0d2588HWRHc1DDH1P8a0mTST20Fv3LrSC7I5O8o+kaSjGpTxP+qPjiFRCp7H2xnhs16psKCfzdgd+58kBXBjbNq8HDDXE6tmX0yHW3KBL6rURR2IzsXRpIYTqYxnEpjOCUrGxlNGk6mMS+HG9dF/OjdDz6nLvrSumMf5t212VLZEKis+SIrggGgqYEOHOh9rwYtbWekl0k3QmSclccr25ttlX+sf1ivYJ0fTqO6JOvLxiMCv5MOkmzZsVe4A8fpm8uzvtLGWTPhqywzqNXMJ4cuXuazG7BZ4M4+ii1PrxOqEK9096nNpERSVptGxBensbhW7A8tWPgdWGEnmx6vXJE1wQDw8i3kRxHdZvbJnRcH8GrUWsV0yO/grqcyKtOv3CHIdySYob27DwnF7+r2ylZVXISbPdkTDKUyZvqNuUBkKlC+EBpsMMPW41FsPR5hrLP5IERjXQ32B25S89mBRqSRnhhW3bkwqxr+RWIc9//xBPcbJEAxLLIs4fHFs/A3i3OP4MM9Mcy7azOfnDWcHmSgyJlgAFj8p7cRTYzqCDUj+pnFXjyzuEHL6BB++XkvfvnZBXKg+4NHqL+nfZUPd8zOfnYJCxpQ8VGzKCbyHuOcTDTFww1zTfyvcdv6+RnbiDpf7I70418+/hLxVBpxxdfGU8T30uPaMlfe5ILpYxaNHSj89R4c3PXUhJGLfBUMAFuPR/Cz4xHtTnP1j5z0f5fqqyjF/sBSpTessHizdwjfOdit++Mo1oIA5Df87tsLsLLAC8eEe2Jo3bHXsjODxBliAWKhkTfBAPC1P72tKdTCJ/vKC09yqHcQa/7nODnI4CIAiSw58cDX1XyFRpj5C3mKyR5oQKEIjgyPYM3hYwgnRhgFZS7wl29dpI5Q5YOtH3+Bto++MLUYAPP9AD79q5smfNHyqYCCEAyG5MiwfdAFWYK/ohSbFjfkRPTO0xfR9sk5RIZYq2H2PeT4mZuvRcvN16j5v0ooGMEAsLU7glfPnEdEUTJVlJXCGutqEKyrRrBuJnyVpRnJfjV8AV29g+i8MKgQqyfSzPfLMtA4txr775lcMzmZKCjBUEjeeea8kE82U17j7GrtWFkQNRwf1WZvmp6HM8nKPjinCvu//dUlF04QDACdfQN4/MPjwj7ZkK6mMeQJKpZ+X3BuNfZ/6wYlw1cXjhCMHHyyzpRDbN51pvMFZ1dh/7duVD701UZeHR1W8JWXYf+Km9FcP0cdI+b7rPm+a3XPL/DFLfRlSGMeLUuuu0ouA8cUzIKY7G5EEiOa+kyUl0mR4E2yomyyJ8r2VZbh5WXzEJxjPVX3q4YJIZjibz/8P4T6LmsLuFgQqktX08xN9cvL5uNh//T4Y8xCY0IJpth6PIqdPecVos0I5nwyDaIgqT652TcHwboqNF8l1hKTQjBFZ98lhPouofPiAKKJMYTjI0SvGZo9D3tnIzB7JhpnV2dsL1+FHpNKsBkiiVHiqwH4KsjA/FUyc8eUI/gqCov/B90y47ZeZ8BfAAAAAElFTkSuQmCC;" parent="5Rh6sSmCLg1GtMQXwpnh-5" vertex="1">
          <mxGeometry x="125" y="244" width="68" height="61" as="geometry" />
        </mxCell>
        <mxCell id="5Rh6sSmCLg1GtMQXwpnh-12" value="&lt;font style=&quot;font-size: 14px;&quot;&gt;Kafka-based flows&lt;/font&gt;" style="shape=process;whiteSpace=wrap;html=1;backgroundOutline=1;fillColor=light-dark(#fbf0e5, #36210a);strokeColor=#d79b00;" parent="5Rh6sSmCLg1GtMQXwpnh-5" vertex="1">
          <mxGeometry x="270" y="255" width="120" height="60" as="geometry" />
        </mxCell>
        <mxCell id="5Rh6sSmCLg1GtMQXwpnh-13" style="edgeStyle=orthogonalEdgeStyle;rounded=0;orthogonalLoop=1;jettySize=auto;html=1;exitX=0.75;exitY=0;exitDx=0;exitDy=0;entryX=0.5;entryY=1;entryDx=0;entryDy=0;strokeWidth=3;" parent="5Rh6sSmCLg1GtMQXwpnh-5" source="5Rh6sSmCLg1GtMQXwpnh-12" target="5Rh6sSmCLg1GtMQXwpnh-9" edge="1">
          <mxGeometry relative="1" as="geometry">
            <Array as="points">
              <mxPoint x="360" y="190" />
              <mxPoint x="265" y="190" />
            </Array>
          </mxGeometry>
        </mxCell>
        <mxCell id="5Rh6sSmCLg1GtMQXwpnh-14" style="edgeStyle=orthogonalEdgeStyle;rounded=0;orthogonalLoop=1;jettySize=auto;html=1;exitX=0.25;exitY=0;exitDx=0;exitDy=0;entryX=0.75;entryY=1;entryDx=0;entryDy=0;strokeWidth=2;dashed=1;dashPattern=1 2;" parent="5Rh6sSmCLg1GtMQXwpnh-5" source="5Rh6sSmCLg1GtMQXwpnh-12" target="5Rh6sSmCLg1GtMQXwpnh-8" edge="1">
          <mxGeometry relative="1" as="geometry">
            <Array as="points">
              <mxPoint x="300" y="220" />
              <mxPoint x="173" y="220" />
            </Array>
          </mxGeometry>
        </mxCell>
        <mxCell id="5Rh6sSmCLg1GtMQXwpnh-29" style="edgeStyle=orthogonalEdgeStyle;rounded=0;orthogonalLoop=1;jettySize=auto;html=1;exitX=0;exitY=0.5;exitDx=0;exitDy=0;entryX=0;entryY=0.5;entryDx=0;entryDy=0;strokeWidth=3;" parent="5Rh6sSmCLg1GtMQXwpnh-5" source="5Rh6sSmCLg1GtMQXwpnh-27" target="5Rh6sSmCLg1GtMQXwpnh-8" edge="1">
          <mxGeometry relative="1" as="geometry" />
        </mxCell>
        <mxCell id="5Rh6sSmCLg1GtMQXwpnh-27" value="Ingress" style="rounded=1;whiteSpace=wrap;html=1;textDirection=vertical-lr;fillColor=light-dark(#ffe7e5, #512d2b);strokeColor=#b85450;rotation=-180;" parent="5Rh6sSmCLg1GtMQXwpnh-5" vertex="1">
          <mxGeometry x="20" y="40" width="30" height="90" as="geometry" />
        </mxCell>
        <mxCell id="5Rh6sSmCLg1GtMQXwpnh-38" value="&lt;b&gt;&lt;font style=&quot;font-size: 14px;&quot;&gt;Internal&lt;/font&gt;&lt;/b&gt;" style="text;html=1;align=center;verticalAlign=middle;whiteSpace=wrap;rounded=0;" parent="5Rh6sSmCLg1GtMQXwpnh-5" vertex="1">
          <mxGeometry x="270" y="155" width="60" height="30" as="geometry" />
        </mxCell>
        <mxCell id="kRqdh9ee5JRcNYlr1lat-31" value="&lt;b&gt;ExternalViaService&lt;/b&gt;" style="text;html=1;align=center;verticalAlign=middle;whiteSpace=wrap;rounded=0;" parent="5Rh6sSmCLg1GtMQXwpnh-5" vertex="1">
          <mxGeometry x="80" y="187" width="60" height="30" as="geometry" />
        </mxCell>
        <mxCell id="5Rh6sSmCLg1GtMQXwpnh-44" value="" style="ellipse;whiteSpace=wrap;html=1;aspect=fixed;strokeColor=#FF0000;" parent="5Rh6sSmCLg1GtMQXwpnh-5" vertex="1">
          <mxGeometry x="367" y="170" width="30" height="30" as="geometry" />
        </mxCell>
        <mxCell id="5Rh6sSmCLg1GtMQXwpnh-45" value="&lt;b&gt;&lt;font style=&quot;color: rgb(255, 0, 0); font-size: 20px;&quot;&gt;2&lt;/font&gt;&lt;/b&gt;" style="text;html=1;align=center;verticalAlign=middle;whiteSpace=wrap;rounded=0;" parent="5Rh6sSmCLg1GtMQXwpnh-5" vertex="1">
          <mxGeometry x="372" y="175" width="20" height="20" as="geometry" />
        </mxCell>
        <mxCell id="5Rh6sSmCLg1GtMQXwpnh-48" value="" style="ellipse;whiteSpace=wrap;html=1;aspect=fixed;strokeColor=#FF0000;dashed=1;dashPattern=1 2;" parent="5Rh6sSmCLg1GtMQXwpnh-5" vertex="1">
          <mxGeometry x="90" y="162" width="30" height="30" as="geometry" />
        </mxCell>
        <mxCell id="5Rh6sSmCLg1GtMQXwpnh-49" value="&lt;font color=&quot;#ff0000&quot;&gt;&lt;span style=&quot;font-size: 20px;&quot;&gt;3&lt;/span&gt;&lt;/font&gt;" style="text;html=1;align=center;verticalAlign=middle;whiteSpace=wrap;rounded=0;" parent="5Rh6sSmCLg1GtMQXwpnh-5" vertex="1">
          <mxGeometry x="95" y="167" width="20" height="20" as="geometry" />
        </mxCell>
        <mxCell id="5Rh6sSmCLg1GtMQXwpnh-92" style="edgeStyle=orthogonalEdgeStyle;rounded=0;orthogonalLoop=1;jettySize=auto;html=1;exitX=0.25;exitY=0;exitDx=0;exitDy=0;strokeWidth=2;dashed=1;dashPattern=1 2;entryX=0.5;entryY=0;entryDx=0;entryDy=0;" parent="5Rh6sSmCLg1GtMQXwpnh-5" source="5Rh6sSmCLg1GtMQXwpnh-12" target="5Rh6sSmCLg1GtMQXwpnh-27" edge="1">
          <mxGeometry relative="1" as="geometry">
            <mxPoint x="310" y="265" as="sourcePoint" />
            <mxPoint x="30" y="130" as="targetPoint" />
            <Array as="points">
              <mxPoint x="300" y="220" />
              <mxPoint x="35" y="220" />
            </Array>
          </mxGeometry>
        </mxCell>
        <mxCell id="5Rh6sSmCLg1GtMQXwpnh-20" value="VM-based infrastructure" style="swimlane;whiteSpace=wrap;html=1;strokeColor=light-dark(#0400C2,#4192F8);strokeWidth=1;" parent="1" vertex="1">
          <mxGeometry x="40" y="40" width="360" height="150" as="geometry" />
        </mxCell>
        <mxCell id="5Rh6sSmCLg1GtMQXwpnh-23" value="" style="rounded=0;whiteSpace=wrap;html=1;" parent="5Rh6sSmCLg1GtMQXwpnh-20" vertex="1">
          <mxGeometry x="10" y="40" width="340" height="90" as="geometry" />
        </mxCell>
        <mxCell id="5Rh6sSmCLg1GtMQXwpnh-24" value="&lt;font style=&quot;font-size: 14px;&quot;&gt;App Connect Enterprise&lt;/font&gt;" style="shape=image;html=1;verticalLabelPosition=bottom;verticalAlign=top;imageAspect=1;aspect=fixed;image=data:image/png,iVBORw0KGgoAAAANSUhEUgAAAHgAAABsCAYAAAChI3ZfAAAAAXNSR0IArs4c6QAAAARnQU1BAACxjwv8YQUAAAAJcEhZcwAADsMAAA7DAcdvqGQAABcpSURBVHhe7V17cBvHff6OAN8iRUKU5AcJQC9biSU7sS3LsgBKnsS1JM+4qRvZE5Ee23+0lt3GqZuZTERnIrGNKE87GsWexI/2DzOx6FSWp0mno0eiJlII2pL8rOVnRT0AiLIsSgQpkQBfAK5/7O3d3t7hbvE4kqL1YQ6HW2APuP32+/1++7iFJMuyjKuYtijiE65ieuEqwdMcVwme5rhK8DTHVYKnOa4SPM0hfdWaSdH+NJ8Eb+30refTjuCOD0YQHUgj2p9CtD+FyICMaCwFQALYK5Ulbk+I9tW64K0tgrfWhcB8F3yeoiu6AlzRBIfCY4gOpNAVHkcoPI5oP0skQ6jhWIIEQJYBCRJkAJJM9/Ts+s8HFrix4bZiBBe44PVcOYRfcQR3fDiMUHgMXZExRPpThCAZOsLMCCV7Jd2QpqRn+rx6flIxAvPd8HmK8L3bi+HzSFOa8CuC4FBkFK8dG0YoMqb5UAMxmRSrTzdTLD3Wn8/6PPTY63Gh6XY3NixzT0mipzTBHccS6DiWQCg8al7Q0NSmEsaaXp2iBQhjzqe9Z048e35qQQILXNh0bym8U0jVU5LgjmNxbOsaRGQgJUYYeGKMJtb0M0y67nvYCqOWjt15tPcDC1zYsKwYTXe4lQyThylFcCg6io17YogOJE0LLjOhrIJz9cncZ6w+z52fVzL9fGChC5vuLUFgoYuedMIxJQiOXkpi474YQpFRpeA4RXEFJ0SGScXwznRx+QiisTSjXPK2pmB6Pv57jefPlB5Y6MKL3yOme6Ix6QRv3NuHjo+HzEmyKTh1r6aRvE3fKEfQVwIACPrJ3ltjraJofxqR/hQAoOt0El2nkoj0pxCNKSdWS8n895gpWbUgIL9r05oSbLjDPaFETxrBoTMj2Li/TzHHyFhw9FhfcHqFN91cjoCvFEFfiS2RuSB0KonfvDeGzlNJnInRnrAcKiSAwAI3XtxQMmEkTwrB2w4PoO3NAcjI3QQ23VyBlmC1I4RaIXSKqLvj3TFEY2mmAhornsG1MK9f2FCK4EKX40RPKMHRy0ls/P0FhM6MGms/+zqDYjcsrUTT0goEvaVanklE16kkth0YRTSWRrRfcd4wr5C6dJBrDSx0Oa7mCSM41DOMta+fIwd8TQcNbiTTZknTkhloCVTDO3Pymx1miPanse3AKEInkqQjxs4nK0TLAHy1EvZ8v9wxkieE4FDPMNa9cS5zjdbVbPqehJaVM9G0pHLKEssj2p/GswdGETqRUom2VDJz3R/91BmSHSc41DOMtW98QQ6YC9PVbOibJcGGMmxaORPBhjLubFcGQieTCtFJUyWbuyUJL2woQdPywlZmRwnu+OwyNh64kLnmqt+svX7p3jo0LZlB37ii0fHuOJ79A/HRptfNKJgSvWlNMX68ppieIm84RvDOzy5j44Hz1hemHktobCjD3gevVfNPF0T703jiP4bRdTJlULLqk8EqGdi0tqRgJDtCcOjsMNb9toe7oEwES2i5sxabVtTozjHd8OyBUXS8M046TgwVXDmGRvQL3yuMuS44waGzCaz9bY/5BTB7WoP3rb8Owfpy3TmmK0Ink3hy1wgifUrXqJVPhlSQwKugBEcGx7Hk16chQ2+KWPNDCfZWu7Hvr6+Htzr/WiqCcE8M4TN9CPfEEOmJAQB89R746z3wN8yCv97DZ3EE0f407nsxIaRkr0fCnr8vy4vkghEcGRzHTb8+aTA1+h9NXvuqivHJYz6a1TGEe2L41e6jaN99BGGF1Ezw13vw6Po78cj65Y6THY2lcd9LCYOS9a6sMO3kghG89r/OIHQ2oSUw4T9AOzKAxusrsPeB67XPOQBK7JYde/m3bEGJ3vz0Wv6tgmNp25C1kpV9Pj1eBSG47d2LaHvnovYDdT9W8ynB68qx74F6+iFHcOhwN+5+6Hk+OWtMFNFL24YMSjbzyZvW5BZZ5z2vJDI4jrZ3L5BfJgGQJEAiO3bvqy52nNzWHfsKQi4UK9C++whad+zj3yoo9jxRAd+sIqasSPlRr0Zfb9uvROBZIm+C1/13GDJkALK6h6y8Vva+Kjf2fsdZs9y6Y19OJtkK4Z4YtuzY6yjJ3toi7NlYAa9HMpSjWp7Kdt8vhrMmOS+C2967gMhQEhKnWk3JJP2lb10DX3X25kUUhw53F5xcFo6T7CnCiw+VGZRMyxUgZRrtl/Ha23T8XAw5ExwZHMfW93qZGkahr3Uty+oQvL6Ceb+wCPfECmaWrdC++wgOHe7mkwuGwAI3NtxenEHBUMtz2/6xrFScc5C1dk8YoS/iTEBljAKD11Zg3196dfkKjbsfel644P31HqxesQj++lnw1Xvw5yPdCPfEhPM/un45XtnezCcXFPe9lEDXCetJh4GFLuz5O7GBmJwIDp2LY82e07ofwLfn/FUl+KRpIZ+1oBCNmP31HryyvRmrVyzi3wIAtO8+itYde23bygBwcNdTGc9TCET701j3YhxnYnLmvmsZ+OinlULNppxM9MbOs5AUH0FdLeuDJUlC02Ln+5Z/9cZRPsmAR9cvx+m3Wi1JeXT9chx8/QfY8vQ6/i0DWn/unC+GEnQ1LyvhypPzyRLwxG9G+aymyJrgtg96ER4aVX0E9RSazwAC11Wg5bY6LmfhYWdaqXJF4K/34JH1yy0rAgCEz/TxSQXHj+8phbfWKqoGuk4k0fH2OJ/VgKwJ7uju19UsqmK2xr28+jo+W8HRvvuorUkVJZfCX+/B5n+w7tjIxmfngz1PVMLncZkqmar4tXfsI+qsCI4MjSE8NErqktLGVffKo+W22fBVOdckoqADBpnwqIAazbB6xSLbfH8+coJPKji8tUXYsKxYLVczJYcEVJwVwW3/e16nWv1GfETLrbP5bI4g3GNtKlfdaU2SFVbnkbeQ2HRPKXyeIkM/A+uTX3vXWsXCBEeGxrDzRIypQ/oHIE8YuU5j1Z3W0f+hI86baIoNt5cwyoVByV0nksqUIHMIE9xxsh+gLoBRLD2GBLTcOofP5hjs/G8+Q37+hll8kg75nDtbNN1eDJ+nSFEs31ohhFj5YmGCd57o07Rr4n9bvjlx5MLhQp6IIEoU3toiBBa41HKmD50vPpknwZGhMUTiYya1R6tFTYucb/ey8NdbqyyfQOjPNibY7rsLjabbSxjLSawny0HXyVRGMy1EcMdJzRySWkP35Nk3oxi+GeQuvomCnZ9s332ETxKGnYJ9DloPMwTmu9GgtIu1UtcrOVOwJUTw1mPnGMXqa48kAc2LavksjsPOT4Z7Ynjshzv5ZFs89sOdtv7drhnlBJo5FYPp2ZIkYNsfzHu2bAmODI0Zagu/b/nGXD6b46ADB1Y4dLjbVo0sDh3uRvtu6+7PRydgzpYZVs53K6Vt/gBkUzNtS3DH6T6l2hDF0o0q2F81saaZxSPfXc4n6UBVLDKWKzobJJ/2dT4IznfD63GR4tf5Y82qhk6SG9hZ2BJMQGoI+5oeNS2cePNMIdLrRGdlzLtrM9p3H9UpmkzLOYq7H3peaMIAmadlXamcRNNtJZAlqldWu+S565TRD9sOF1a+9r7CrX5ckg5j7f+LhQheM3n3EokOGbLw13ts/awZnB4qtEPXqSTu+/chvdZUXiQE5ruxZ6N+coWlgiPxUW1+FVNf2NeTSS4UFYsM87HIhVwRa+E0AvPdaKhRommTvojQyXHDYquWBEcztH2pT/ZNov9lITLMlw9Wr1iEg7ue4pMnBRoXhBDeH/OdHpYEd/YOMv6XblBfNy+Y+GjSDP56j23AlQ+cPHe2CMx3EwsqKZaU88k8LAmWwIZs+ihak/PUQKtAkJQrnDx3tgjMdxMFQ1Ey9Cp+87Q+krYkuPP8Za1mcHOdARmBuZV8lklB6459OflVUeTaaeIEvDVFuhhIfTC+mIUlwdTv6u2+dtw4t4rPMeGgzSCnkW2niVPw1ZLV+iTFeOq5kQydHZYEd164zNQW8kpbBsdo7ycDIsqi013ZWR5+5dbRLU+vUzcrhHtijk+4E4G3tghQ/C4khRNoPjkyoDfRlu3gyl3vaAfc3YK+yhJ8ev9S7f0c8cHFYbiLJPQOJzEwmkK5uwgSgBnFRah0F6G21IWqEhcq3BLKXEUoYtx+++6jtgT76z04/VYrn2wANcN2KqUVZTKxZHs/mVYL7a5Ndr3rS9u0kT1LBRvsO2vnM1YLe3SeG0L78Rh+9v55/Gd4AHujl/HZwAgGx1OIj+tNzHhaxmgqjfG0jDRXF0WCH9GJdyIT7iD4nY5DVpTLxUWUIxYZCY7ERw1tLHbLJYD+fc9l/OS9c3j584s43BtHbCzJRIOaz1dh8R0igVW2E+9Wr1hkq86pEHD5ask9TNrG+WQGGQmGLlbTH8mQ4a0U7+Q4mxjHk2+dwb9+dB4fxchN4rwn1/b2pkE0sNps41fNIJJnagRcGjPEJ5PbH/jysyRYr1j9+KOVulg892kv7v19Nz6IJZhoT8uu1jx6zB5kgIiCtjy9LqdhPZHJ8pMdcEUG0noFgylXUQX7Kks1u84/ZBnRuPkAM4v7/3QCOz790qB+qErVH5FX2rMZRNTjr/fkdWe+SL+zyNixc6Dq1TYZbB+FhowEA6R28L6XbIwETRCJj2HNH7tx+MKQ6iN0NY6xAgYl20hYRL12CrTDlA+41DI1litfdJYEm6uY1JdIfIT/uIrHj4QROk/a0AS0plGwitVrWHuWUerS/9p//rl9YCWiPhFM5YCLLKLOKhgmZUxgSTDUimIctYAkkeFEDmv+eByh3kFjrVIlquzUvYSlnnJ8+7oqfHdeDdbPq8HahmoEr52Bm2rLcENNKerK3Pjy3AD+ScDv5ateFlM24OLLlTn2cX/nY0Mwr179g8fWj79AZy/pv+bbaHqNkrR766vxj0vmYF1DNRbXlGFGsfnPKXVJ2PijDj7ZgFwDq0yYigFXdCDFlCerYraMNZiXqILGOdWGyJlVMRtohXoH0fbxWUbhili5vADwtZpy/NtdPtx7fTVqSuyX5BdRSb6BVSaImPyJDLgiAykDJ6yafdwfaVoSDLVO6OsF6RWTEU5oBD/+zmnlS5TPKmSqe+U8W2+9Hj+5JbtVZUX8nJ3SckW2AVe4J6ZuTiA6kOL4oItrkbIPzNPf2WlJcKCumrygDWjaoIYMWQK6LgwCALZ+chbh+AhjNPQmhBqO7csasKQmu4VHRXqsVq1YhJXLF2I8LVtuvPkShWjAJXm/j3l3bVY3eixyDaKIXuJNNHQmmoclwb7KUiYYIk+qiQYQURTc9qlmmjUTre8YeWG5H7fUZrfajmiPVfv2ZqRkIJFMW27DSeO8YVGIBFxmoNdw94PPCU3ftUNXZDyDiSYJAX8WCm6sm6nTpK5TGzI6L1zC4++c0qUZH8CTN87BrZ7syIWgaaaBVZlLwkhSRnw8zW2yug2MppEyVnIhiARcVqBEz7trc15q7gyTG/B1FlLW9sFsTDQUFbOOXK9oIHTxMknXKpFua6gowZM3ZHfnQ1iZr5xtYOUpc2EsLSORZDe9ii+NGieHi0Ik4LJDuCeGux98zvbazBAdSDEW0rgnkwH0sCW4sa5aZ+NlMD4ZMsLxEZKuTM/VdEv2671izRbaaUD9loh6eUUVF0kodxchnkxrG6fo/jwILlQTjF5rLkretGoGAv5ieGtcisdVOIExwAJsBvwB4NVoLx5//wQkYqHJhHeQAWayVz7IDDhTX39jVTneX2M/KSCXdSYzTWUdTcn4pH8EY7wtVg8lfHN2maGXTAS5TLK3QqZrEAX5J/RxdIXHEBlIoemWcmxarZ8nZ0swAFT87k3yQpOvjkj1GAzRMrBlaQN+9DXrFXdyIRcATr/VmlFR718cJkrNcGVfry3DtZXZrzSfzap6onD6bglbEw0TP2y28b5ZkoCVs60n5YlGyTzseqxml7n1ZjqZRjwpq9uXw8Z7eOwgEhOAuetRlDSne8GECG72ssszEP+qbVTMxnbyyjprgkX8rBnsVtgpdUlIjPPNpBTZxlPoH8neD9vd9Q+l4p1+qxUHdz2Fg7uesrQyFE4vrCZEcHDWTE6x3IIgqnK1drK/0v4PJEUUYQa7fHPK3SiSYFTwOFHwxZHsFWz3na9sbzZ0lfrrPTj4+g90aTzCDi+sJkRwY91M+CrI0CFVrqEtBhKF0Ye3wnpKTz59tyJdgYkUH0mnEE+mEFcUnS3svi9TTxc12ZMFIYKhmGmqUt7/mvlin42C7Vaqs4OdaRtJGdvAdPsykZ2C7ci1I9BuYTW78+cDYYKfucELX0Wp3vcCBp8sQyFb9xkj7BZRsYPdGh2JZFpVLGumE8k0BAawsoJdZbOLGZyEMMFQTDWvWFOfLAGR4TE+uw52BNnBLng5mxjTVJtKI6EoOp5MYzhpXfl42H2XnR+1c0d2588HWRHc1DDH1P8a0mTST20Fv3LrSC7I5O8o+kaSjGpTxP+qPjiFRCp7H2xnhs16psKCfzdgd+58kBXBjbNq8HDDXE6tmX0yHW3KBL6rURR2IzsXRpIYTqYxnEpjOCUrGxlNGk6mMS+HG9dF/OjdDz6nLvrSumMf5t212VLZEKis+SIrggGgqYEOHOh9rwYtbWekl0k3QmSclccr25ttlX+sf1ivYJ0fTqO6JOvLxiMCv5MOkmzZsVe4A8fpm8uzvtLGWTPhqywzqNXMJ4cuXuazG7BZ4M4+ii1PrxOqEK9096nNpERSVptGxBensbhW7A8tWPgdWGEnmx6vXJE1wQDw8i3kRxHdZvbJnRcH8GrUWsV0yO/grqcyKtOv3CHIdySYob27DwnF7+r2ylZVXISbPdkTDKUyZvqNuUBkKlC+EBpsMMPW41FsPR5hrLP5IERjXQ32B25S89mBRqSRnhhW3bkwqxr+RWIc9//xBPcbJEAxLLIs4fHFs/A3i3OP4MM9Mcy7azOfnDWcHmSgyJlgAFj8p7cRTYzqCDUj+pnFXjyzuEHL6BB++XkvfvnZBXKg+4NHqL+nfZUPd8zOfnYJCxpQ8VGzKCbyHuOcTDTFww1zTfyvcdv6+RnbiDpf7I70418+/hLxVBpxxdfGU8T30uPaMlfe5ILpYxaNHSj89R4c3PXUhJGLfBUMAFuPR/Cz4xHtTnP1j5z0f5fqqyjF/sBSpTessHizdwjfOdit++Mo1oIA5Df87tsLsLLAC8eEe2Jo3bHXsjODxBliAWKhkTfBAPC1P72tKdTCJ/vKC09yqHcQa/7nODnI4CIAiSw58cDX1XyFRpj5C3mKyR5oQKEIjgyPYM3hYwgnRhgFZS7wl29dpI5Q5YOtH3+Bto++MLUYAPP9AD79q5smfNHyqYCCEAyG5MiwfdAFWYK/ohSbFjfkRPTO0xfR9sk5RIZYq2H2PeT4mZuvRcvN16j5v0ooGMEAsLU7glfPnEdEUTJVlJXCGutqEKyrRrBuJnyVpRnJfjV8AV29g+i8MKgQqyfSzPfLMtA4txr775lcMzmZKCjBUEjeeea8kE82U17j7GrtWFkQNRwf1WZvmp6HM8nKPjinCvu//dUlF04QDACdfQN4/MPjwj7ZkK6mMeQJKpZ+X3BuNfZ/6wYlw1cXjhCMHHyyzpRDbN51pvMFZ1dh/7duVD701UZeHR1W8JWXYf+Km9FcP0cdI+b7rPm+a3XPL/DFLfRlSGMeLUuuu0ouA8cUzIKY7G5EEiOa+kyUl0mR4E2yomyyJ8r2VZbh5WXzEJxjPVX3q4YJIZjibz/8P4T6LmsLuFgQqktX08xN9cvL5uNh//T4Y8xCY0IJpth6PIqdPecVos0I5nwyDaIgqT652TcHwboqNF8l1hKTQjBFZ98lhPouofPiAKKJMYTjI0SvGZo9D3tnIzB7JhpnV2dsL1+FHpNKsBkiiVHiqwH4KsjA/FUyc8eUI/gqCov/B90y47ZeZ8BfAAAAAElFTkSuQmCC;" parent="5Rh6sSmCLg1GtMQXwpnh-20" vertex="1">
          <mxGeometry x="55" y="44" width="68" height="61" as="geometry" />
        </mxCell>
        <mxCell id="5Rh6sSmCLg1GtMQXwpnh-25" value="&lt;font style=&quot;font-size: 14px;&quot;&gt;Kafka-based flows&lt;/font&gt;" style="shape=process;whiteSpace=wrap;html=1;backgroundOutline=1;fillColor=light-dark(#fbf0e5, #36210a);strokeColor=#d79b00;" parent="5Rh6sSmCLg1GtMQXwpnh-20" vertex="1">
          <mxGeometry x="200" y="55" width="120" height="60" as="geometry" />
        </mxCell>
        <mxCell id="5Rh6sSmCLg1GtMQXwpnh-28" style="edgeStyle=orthogonalEdgeStyle;rounded=0;orthogonalLoop=1;jettySize=auto;html=1;exitX=1;exitY=0.5;exitDx=0;exitDy=0;entryX=1;entryY=0.5;entryDx=0;entryDy=0;strokeWidth=3;" parent="1" source="5Rh6sSmCLg1GtMQXwpnh-25" target="5Rh6sSmCLg1GtMQXwpnh-27" edge="1">
          <mxGeometry relative="1" as="geometry" />
        </mxCell>
        <mxCell id="5Rh6sSmCLg1GtMQXwpnh-30" value="Developer system" style="swimlane;whiteSpace=wrap;html=1;strokeColor=light-dark(#0400C2,#4192F8);strokeWidth=1;" parent="1" vertex="1">
          <mxGeometry x="40" y="220" width="360" height="150" as="geometry" />
        </mxCell>
        <mxCell id="5Rh6sSmCLg1GtMQXwpnh-31" value="" style="rounded=0;whiteSpace=wrap;html=1;" parent="5Rh6sSmCLg1GtMQXwpnh-30" vertex="1">
          <mxGeometry x="10" y="40" width="290" height="90" as="geometry" />
        </mxCell>
        <mxCell id="5Rh6sSmCLg1GtMQXwpnh-32" value="&lt;font style=&quot;font-size: 14px;&quot;&gt;App Connect Enterprise&lt;/font&gt;" style="shape=image;html=1;verticalLabelPosition=bottom;verticalAlign=top;imageAspect=1;aspect=fixed;image=data:image/png,iVBORw0KGgoAAAANSUhEUgAAAHgAAABsCAYAAAChI3ZfAAAAAXNSR0IArs4c6QAAAARnQU1BAACxjwv8YQUAAAAJcEhZcwAADsMAAA7DAcdvqGQAABcpSURBVHhe7V17cBvHff6OAN8iRUKU5AcJQC9biSU7sS3LsgBKnsS1JM+4qRvZE5Ee23+0lt3GqZuZTERnIrGNKE87GsWexI/2DzOx6FSWp0mno0eiJlII2pL8rOVnRT0AiLIsSgQpkQBfAK5/7O3d3t7hbvE4kqL1YQ6HW2APuP32+/1++7iFJMuyjKuYtijiE65ieuEqwdMcVwme5rhK8DTHVYKnOa4SPM0hfdWaSdH+NJ8Eb+30refTjuCOD0YQHUgj2p9CtD+FyICMaCwFQALYK5Ulbk+I9tW64K0tgrfWhcB8F3yeoiu6AlzRBIfCY4gOpNAVHkcoPI5oP0skQ6jhWIIEQJYBCRJkAJJM9/Ts+s8HFrix4bZiBBe44PVcOYRfcQR3fDiMUHgMXZExRPpThCAZOsLMCCV7Jd2QpqRn+rx6flIxAvPd8HmK8L3bi+HzSFOa8CuC4FBkFK8dG0YoMqb5UAMxmRSrTzdTLD3Wn8/6PPTY63Gh6XY3NixzT0mipzTBHccS6DiWQCg8al7Q0NSmEsaaXp2iBQhjzqe9Z048e35qQQILXNh0bym8U0jVU5LgjmNxbOsaRGQgJUYYeGKMJtb0M0y67nvYCqOWjt15tPcDC1zYsKwYTXe4lQyThylFcCg6io17YogOJE0LLjOhrIJz9cncZ6w+z52fVzL9fGChC5vuLUFgoYuedMIxJQiOXkpi474YQpFRpeA4RXEFJ0SGScXwznRx+QiisTSjXPK2pmB6Pv57jefPlB5Y6MKL3yOme6Ix6QRv3NuHjo+HzEmyKTh1r6aRvE3fKEfQVwIACPrJ3ltjraJofxqR/hQAoOt0El2nkoj0pxCNKSdWS8n895gpWbUgIL9r05oSbLjDPaFETxrBoTMj2Li/TzHHyFhw9FhfcHqFN91cjoCvFEFfiS2RuSB0KonfvDeGzlNJnInRnrAcKiSAwAI3XtxQMmEkTwrB2w4PoO3NAcjI3QQ23VyBlmC1I4RaIXSKqLvj3TFEY2mmAhornsG1MK9f2FCK4EKX40RPKMHRy0ls/P0FhM6MGms/+zqDYjcsrUTT0goEvaVanklE16kkth0YRTSWRrRfcd4wr5C6dJBrDSx0Oa7mCSM41DOMta+fIwd8TQcNbiTTZknTkhloCVTDO3Pymx1miPanse3AKEInkqQjxs4nK0TLAHy1EvZ8v9wxkieE4FDPMNa9cS5zjdbVbPqehJaVM9G0pHLKEssj2p/GswdGETqRUom2VDJz3R/91BmSHSc41DOMtW98QQ6YC9PVbOibJcGGMmxaORPBhjLubFcGQieTCtFJUyWbuyUJL2woQdPywlZmRwnu+OwyNh64kLnmqt+svX7p3jo0LZlB37ii0fHuOJ79A/HRptfNKJgSvWlNMX68ppieIm84RvDOzy5j44Hz1hemHktobCjD3gevVfNPF0T703jiP4bRdTJlULLqk8EqGdi0tqRgJDtCcOjsMNb9toe7oEwES2i5sxabVtTozjHd8OyBUXS8M046TgwVXDmGRvQL3yuMuS44waGzCaz9bY/5BTB7WoP3rb8Owfpy3TmmK0Ink3hy1wgifUrXqJVPhlSQwKugBEcGx7Hk16chQ2+KWPNDCfZWu7Hvr6+Htzr/WiqCcE8M4TN9CPfEEOmJAQB89R746z3wN8yCv97DZ3EE0f407nsxIaRkr0fCnr8vy4vkghEcGRzHTb8+aTA1+h9NXvuqivHJYz6a1TGEe2L41e6jaN99BGGF1Ezw13vw6Po78cj65Y6THY2lcd9LCYOS9a6sMO3kghG89r/OIHQ2oSUw4T9AOzKAxusrsPeB67XPOQBK7JYde/m3bEGJ3vz0Wv6tgmNp25C1kpV9Pj1eBSG47d2LaHvnovYDdT9W8ynB68qx74F6+iFHcOhwN+5+6Hk+OWtMFNFL24YMSjbzyZvW5BZZ5z2vJDI4jrZ3L5BfJgGQJEAiO3bvqy52nNzWHfsKQi4UK9C++whad+zj3yoo9jxRAd+sIqasSPlRr0Zfb9uvROBZIm+C1/13GDJkALK6h6y8Vva+Kjf2fsdZs9y6Y19OJtkK4Z4YtuzY6yjJ3toi7NlYAa9HMpSjWp7Kdt8vhrMmOS+C2967gMhQEhKnWk3JJP2lb10DX3X25kUUhw53F5xcFo6T7CnCiw+VGZRMyxUgZRrtl/Ha23T8XAw5ExwZHMfW93qZGkahr3Uty+oQvL6Ceb+wCPfECmaWrdC++wgOHe7mkwuGwAI3NtxenEHBUMtz2/6xrFScc5C1dk8YoS/iTEBljAKD11Zg3196dfkKjbsfel644P31HqxesQj++lnw1Xvw5yPdCPfEhPM/un45XtnezCcXFPe9lEDXCetJh4GFLuz5O7GBmJwIDp2LY82e07ofwLfn/FUl+KRpIZ+1oBCNmP31HryyvRmrVyzi3wIAtO8+itYde23bygBwcNdTGc9TCET701j3YhxnYnLmvmsZ+OinlULNppxM9MbOs5AUH0FdLeuDJUlC02Ln+5Z/9cZRPsmAR9cvx+m3Wi1JeXT9chx8/QfY8vQ6/i0DWn/unC+GEnQ1LyvhypPzyRLwxG9G+aymyJrgtg96ER4aVX0E9RSazwAC11Wg5bY6LmfhYWdaqXJF4K/34JH1yy0rAgCEz/TxSQXHj+8phbfWKqoGuk4k0fH2OJ/VgKwJ7uju19UsqmK2xr28+jo+W8HRvvuorUkVJZfCX+/B5n+w7tjIxmfngz1PVMLncZkqmar4tXfsI+qsCI4MjSE8NErqktLGVffKo+W22fBVOdckoqADBpnwqIAazbB6xSLbfH8+coJPKji8tUXYsKxYLVczJYcEVJwVwW3/e16nWv1GfETLrbP5bI4g3GNtKlfdaU2SFVbnkbeQ2HRPKXyeIkM/A+uTX3vXWsXCBEeGxrDzRIypQ/oHIE8YuU5j1Z3W0f+hI86baIoNt5cwyoVByV0nksqUIHMIE9xxsh+gLoBRLD2GBLTcOofP5hjs/G8+Q37+hll8kg75nDtbNN1eDJ+nSFEs31ohhFj5YmGCd57o07Rr4n9bvjlx5MLhQp6IIEoU3toiBBa41HKmD50vPpknwZGhMUTiYya1R6tFTYucb/ey8NdbqyyfQOjPNibY7rsLjabbSxjLSawny0HXyVRGMy1EcMdJzRySWkP35Nk3oxi+GeQuvomCnZ9s332ETxKGnYJ9DloPMwTmu9GgtIu1UtcrOVOwJUTw1mPnGMXqa48kAc2LavksjsPOT4Z7Ynjshzv5ZFs89sOdtv7drhnlBJo5FYPp2ZIkYNsfzHu2bAmODI0Zagu/b/nGXD6b46ADB1Y4dLjbVo0sDh3uRvtu6+7PRydgzpYZVs53K6Vt/gBkUzNtS3DH6T6l2hDF0o0q2F81saaZxSPfXc4n6UBVLDKWKzobJJ/2dT4IznfD63GR4tf5Y82qhk6SG9hZ2BJMQGoI+5oeNS2cePNMIdLrRGdlzLtrM9p3H9UpmkzLOYq7H3peaMIAmadlXamcRNNtJZAlqldWu+S565TRD9sOF1a+9r7CrX5ckg5j7f+LhQheM3n3EokOGbLw13ts/awZnB4qtEPXqSTu+/chvdZUXiQE5ruxZ6N+coWlgiPxUW1+FVNf2NeTSS4UFYsM87HIhVwRa+E0AvPdaKhRommTvojQyXHDYquWBEcztH2pT/ZNov9lITLMlw9Wr1iEg7ue4pMnBRoXhBDeH/OdHpYEd/YOMv6XblBfNy+Y+GjSDP56j23AlQ+cPHe2CMx3EwsqKZaU88k8LAmWwIZs+ihak/PUQKtAkJQrnDx3tgjMdxMFQ1Ey9Cp+87Q+krYkuPP8Za1mcHOdARmBuZV8lklB6459OflVUeTaaeIEvDVFuhhIfTC+mIUlwdTv6u2+dtw4t4rPMeGgzSCnkW2niVPw1ZLV+iTFeOq5kQydHZYEd164zNQW8kpbBsdo7ycDIsqi013ZWR5+5dbRLU+vUzcrhHtijk+4E4G3tghQ/C4khRNoPjkyoDfRlu3gyl3vaAfc3YK+yhJ8ev9S7f0c8cHFYbiLJPQOJzEwmkK5uwgSgBnFRah0F6G21IWqEhcq3BLKXEUoYtx+++6jtgT76z04/VYrn2wANcN2KqUVZTKxZHs/mVYL7a5Ndr3rS9u0kT1LBRvsO2vnM1YLe3SeG0L78Rh+9v55/Gd4AHujl/HZwAgGx1OIj+tNzHhaxmgqjfG0jDRXF0WCH9GJdyIT7iD4nY5DVpTLxUWUIxYZCY7ERw1tLHbLJYD+fc9l/OS9c3j584s43BtHbCzJRIOaz1dh8R0igVW2E+9Wr1hkq86pEHD5ask9TNrG+WQGGQmGLlbTH8mQ4a0U7+Q4mxjHk2+dwb9+dB4fxchN4rwn1/b2pkE0sNps41fNIJJnagRcGjPEJ5PbH/jysyRYr1j9+KOVulg892kv7v19Nz6IJZhoT8uu1jx6zB5kgIiCtjy9LqdhPZHJ8pMdcEUG0noFgylXUQX7Kks1u84/ZBnRuPkAM4v7/3QCOz790qB+qErVH5FX2rMZRNTjr/fkdWe+SL+zyNixc6Dq1TYZbB+FhowEA6R28L6XbIwETRCJj2HNH7tx+MKQ6iN0NY6xAgYl20hYRL12CrTDlA+41DI1litfdJYEm6uY1JdIfIT/uIrHj4QROk/a0AS0plGwitVrWHuWUerS/9p//rl9YCWiPhFM5YCLLKLOKhgmZUxgSTDUimIctYAkkeFEDmv+eByh3kFjrVIlquzUvYSlnnJ8+7oqfHdeDdbPq8HahmoEr52Bm2rLcENNKerK3Pjy3AD+ScDv5ateFlM24OLLlTn2cX/nY0Mwr179g8fWj79AZy/pv+bbaHqNkrR766vxj0vmYF1DNRbXlGFGsfnPKXVJ2PijDj7ZgFwDq0yYigFXdCDFlCerYraMNZiXqILGOdWGyJlVMRtohXoH0fbxWUbhili5vADwtZpy/NtdPtx7fTVqSuyX5BdRSb6BVSaImPyJDLgiAykDJ6yafdwfaVoSDLVO6OsF6RWTEU5oBD/+zmnlS5TPKmSqe+U8W2+9Hj+5JbtVZUX8nJ3SckW2AVe4J6ZuTiA6kOL4oItrkbIPzNPf2WlJcKCumrygDWjaoIYMWQK6LgwCALZ+chbh+AhjNPQmhBqO7csasKQmu4VHRXqsVq1YhJXLF2I8LVtuvPkShWjAJXm/j3l3bVY3eixyDaKIXuJNNHQmmoclwb7KUiYYIk+qiQYQURTc9qlmmjUTre8YeWG5H7fUZrfajmiPVfv2ZqRkIJFMW27DSeO8YVGIBFxmoNdw94PPCU3ftUNXZDyDiSYJAX8WCm6sm6nTpK5TGzI6L1zC4++c0qUZH8CTN87BrZ7syIWgaaaBVZlLwkhSRnw8zW2yug2MppEyVnIhiARcVqBEz7trc15q7gyTG/B1FlLW9sFsTDQUFbOOXK9oIHTxMknXKpFua6gowZM3ZHfnQ1iZr5xtYOUpc2EsLSORZDe9ii+NGieHi0Ik4LJDuCeGux98zvbazBAdSDEW0rgnkwH0sCW4sa5aZ+NlMD4ZMsLxEZKuTM/VdEv2671izRbaaUD9loh6eUUVF0kodxchnkxrG6fo/jwILlQTjF5rLkretGoGAv5ieGtcisdVOIExwAJsBvwB4NVoLx5//wQkYqHJhHeQAWayVz7IDDhTX39jVTneX2M/KSCXdSYzTWUdTcn4pH8EY7wtVg8lfHN2maGXTAS5TLK3QqZrEAX5J/RxdIXHEBlIoemWcmxarZ8nZ0swAFT87k3yQpOvjkj1GAzRMrBlaQN+9DXrFXdyIRcATr/VmlFR718cJkrNcGVfry3DtZXZrzSfzap6onD6bglbEw0TP2y28b5ZkoCVs60n5YlGyTzseqxml7n1ZjqZRjwpq9uXw8Z7eOwgEhOAuetRlDSne8GECG72ssszEP+qbVTMxnbyyjprgkX8rBnsVtgpdUlIjPPNpBTZxlPoH8neD9vd9Q+l4p1+qxUHdz2Fg7uesrQyFE4vrCZEcHDWTE6x3IIgqnK1drK/0v4PJEUUYQa7fHPK3SiSYFTwOFHwxZHsFWz3na9sbzZ0lfrrPTj4+g90aTzCDi+sJkRwY91M+CrI0CFVrqEtBhKF0Ye3wnpKTz59tyJdgYkUH0mnEE+mEFcUnS3svi9TTxc12ZMFIYKhmGmqUt7/mvlin42C7Vaqs4OdaRtJGdvAdPsykZ2C7ci1I9BuYTW78+cDYYKfucELX0Wp3vcCBp8sQyFb9xkj7BZRsYPdGh2JZFpVLGumE8k0BAawsoJdZbOLGZyEMMFQTDWvWFOfLAGR4TE+uw52BNnBLng5mxjTVJtKI6EoOp5MYzhpXfl42H2XnR+1c0d2588HWRHc1DDH1P8a0mTST20Fv3LrSC7I5O8o+kaSjGpTxP+qPjiFRCp7H2xnhs16psKCfzdgd+58kBXBjbNq8HDDXE6tmX0yHW3KBL6rURR2IzsXRpIYTqYxnEpjOCUrGxlNGk6mMS+HG9dF/OjdDz6nLvrSumMf5t212VLZEKis+SIrggGgqYEOHOh9rwYtbWekl0k3QmSclccr25ttlX+sf1ivYJ0fTqO6JOvLxiMCv5MOkmzZsVe4A8fpm8uzvtLGWTPhqywzqNXMJ4cuXuazG7BZ4M4+ii1PrxOqEK9096nNpERSVptGxBensbhW7A8tWPgdWGEnmx6vXJE1wQDw8i3kRxHdZvbJnRcH8GrUWsV0yO/grqcyKtOv3CHIdySYob27DwnF7+r2ylZVXISbPdkTDKUyZvqNuUBkKlC+EBpsMMPW41FsPR5hrLP5IERjXQ32B25S89mBRqSRnhhW3bkwqxr+RWIc9//xBPcbJEAxLLIs4fHFs/A3i3OP4MM9Mcy7azOfnDWcHmSgyJlgAFj8p7cRTYzqCDUj+pnFXjyzuEHL6BB++XkvfvnZBXKg+4NHqL+nfZUPd8zOfnYJCxpQ8VGzKCbyHuOcTDTFww1zTfyvcdv6+RnbiDpf7I70418+/hLxVBpxxdfGU8T30uPaMlfe5ILpYxaNHSj89R4c3PXUhJGLfBUMAFuPR/Cz4xHtTnP1j5z0f5fqqyjF/sBSpTessHizdwjfOdit++Mo1oIA5Df87tsLsLLAC8eEe2Jo3bHXsjODxBliAWKhkTfBAPC1P72tKdTCJ/vKC09yqHcQa/7nODnI4CIAiSw58cDX1XyFRpj5C3mKyR5oQKEIjgyPYM3hYwgnRhgFZS7wl29dpI5Q5YOtH3+Bto++MLUYAPP9AD79q5smfNHyqYCCEAyG5MiwfdAFWYK/ohSbFjfkRPTO0xfR9sk5RIZYq2H2PeT4mZuvRcvN16j5v0ooGMEAsLU7glfPnEdEUTJVlJXCGutqEKyrRrBuJnyVpRnJfjV8AV29g+i8MKgQqyfSzPfLMtA4txr775lcMzmZKCjBUEjeeea8kE82U17j7GrtWFkQNRwf1WZvmp6HM8nKPjinCvu//dUlF04QDACdfQN4/MPjwj7ZkK6mMeQJKpZ+X3BuNfZ/6wYlw1cXjhCMHHyyzpRDbN51pvMFZ1dh/7duVD701UZeHR1W8JWXYf+Km9FcP0cdI+b7rPm+a3XPL/DFLfRlSGMeLUuuu0ouA8cUzIKY7G5EEiOa+kyUl0mR4E2yomyyJ8r2VZbh5WXzEJxjPVX3q4YJIZjibz/8P4T6LmsLuFgQqktX08xN9cvL5uNh//T4Y8xCY0IJpth6PIqdPecVos0I5nwyDaIgqT652TcHwboqNF8l1hKTQjBFZ98lhPouofPiAKKJMYTjI0SvGZo9D3tnIzB7JhpnV2dsL1+FHpNKsBkiiVHiqwH4KsjA/FUyc8eUI/gqCov/B90y47ZeZ8BfAAAAAElFTkSuQmCC;" parent="5Rh6sSmCLg1GtMQXwpnh-30" vertex="1">
          <mxGeometry x="55" y="44" width="68" height="61" as="geometry" />
        </mxCell>
        <mxCell id="5Rh6sSmCLg1GtMQXwpnh-33" value="&lt;font style=&quot;font-size: 14px;&quot;&gt;Kafka-based flows&lt;/font&gt;" style="shape=process;whiteSpace=wrap;html=1;backgroundOutline=1;fillColor=light-dark(#fbf0e5, #36210a);strokeColor=#d79b00;" parent="5Rh6sSmCLg1GtMQXwpnh-30" vertex="1">
          <mxGeometry x="170" y="55" width="120" height="60" as="geometry" />
        </mxCell>
        <mxCell id="5Rh6sSmCLg1GtMQXwpnh-34" style="edgeStyle=orthogonalEdgeStyle;rounded=0;orthogonalLoop=1;jettySize=auto;html=1;exitX=1;exitY=0.25;exitDx=0;exitDy=0;entryX=1;entryY=0.5;entryDx=0;entryDy=0;strokeWidth=3;" parent="1" source="5Rh6sSmCLg1GtMQXwpnh-33" target="5Rh6sSmCLg1GtMQXwpnh-27" edge="1">
          <mxGeometry relative="1" as="geometry" />
        </mxCell>
        <mxCell id="5Rh6sSmCLg1GtMQXwpnh-36" style="edgeStyle=orthogonalEdgeStyle;rounded=0;orthogonalLoop=1;jettySize=auto;html=1;exitX=1;exitY=0.75;exitDx=0;exitDy=0;entryX=0;entryY=0.5;entryDx=0;entryDy=0;dashed=1;dashPattern=1 2;strokeWidth=2;strokeColor=light-dark(#0000FF,#53CCFF);" parent="1" source="5Rh6sSmCLg1GtMQXwpnh-33" target="5Rh6sSmCLg1GtMQXwpnh-35" edge="1">
          <mxGeometry relative="1" as="geometry" />
        </mxCell>
        <mxCell id="5Rh6sSmCLg1GtMQXwpnh-37" style="edgeStyle=orthogonalEdgeStyle;rounded=0;orthogonalLoop=1;jettySize=auto;html=1;exitX=1;exitY=0.5;exitDx=0;exitDy=0;dashed=1;dashPattern=1 2;strokeWidth=2;strokeColor=light-dark(#0000FF,#53CCFF);entryX=0;entryY=0;entryDx=0;entryDy=0;" parent="1" source="5Rh6sSmCLg1GtMQXwpnh-33" target="5Rh6sSmCLg1GtMQXwpnh-35" edge="1">
          <mxGeometry relative="1" as="geometry">
            <mxPoint x="340" y="330" as="sourcePoint" />
            <mxPoint x="728" y="160" as="targetPoint" />
          </mxGeometry>
        </mxCell>
        <mxCell id="5Rh6sSmCLg1GtMQXwpnh-35" value="Kubectl&lt;div&gt;port-forward&lt;/div&gt;" style="shape=parallelogram;perimeter=parallelogramPerimeter;whiteSpace=wrap;html=1;fixedSize=1;fillColor=light-dark(#f6f1f9, #392f3f);strokeColor=#9673a6;size=30;" parent="1" vertex="1">
          <mxGeometry x="380" y="299" width="140" height="40" as="geometry" />
        </mxCell>
        <mxCell id="5Rh6sSmCLg1GtMQXwpnh-42" value="" style="ellipse;whiteSpace=wrap;html=1;aspect=fixed;strokeColor=#FF0000;" parent="1" vertex="1">
          <mxGeometry x="420" y="130" width="30" height="30" as="geometry" />
        </mxCell>
        <mxCell id="5Rh6sSmCLg1GtMQXwpnh-43" value="&lt;b&gt;&lt;font style=&quot;color: rgb(255, 0, 0); font-size: 20px;&quot;&gt;1&lt;/font&gt;&lt;/b&gt;" style="text;html=1;align=center;verticalAlign=middle;whiteSpace=wrap;rounded=0;" parent="1" vertex="1">
          <mxGeometry x="425" y="135" width="20" height="20" as="geometry" />
        </mxCell>
        <mxCell id="5Rh6sSmCLg1GtMQXwpnh-51" value="&lt;font style=&quot;font-size: 48px;&quot; color=&quot;#ff0000&quot;&gt;&lt;b style=&quot;&quot;&gt;X&lt;/b&gt;&lt;/font&gt;" style="text;html=1;align=center;verticalAlign=middle;whiteSpace=wrap;rounded=0;" parent="1" vertex="1">
          <mxGeometry x="480" y="280" width="50" height="49" as="geometry" />
        </mxCell>
      </root>
    </mxGraphModel>
  </diagram>
</mxfile>
